<mxfile host="app.diagrams.net" modified="2023-11-14T04:20:11.141Z" agent="Mozilla/5.0 (Windows NT 10.0; Win64; x64) AppleWebKit/537.36 (KHTML, like Gecko) Chrome/119.0.0.0 Safari/537.36 Edg/119.0.0.0" etag="uuM9N_4ToCwaGTNpcS29" version="22.1.0" type="github">
  <diagram name="第 1 页" id="i_yA9KuT5vUHTsUEpsHe">
    <mxGraphModel dx="2799" dy="888" grid="1" gridSize="10" guides="1" tooltips="1" connect="1" arrows="1" fold="1" page="1" pageScale="1" pageWidth="827" pageHeight="1169" math="0" shadow="0">
      <root>
        <mxCell id="0" />
        <mxCell id="1" parent="0" />
        <mxCell id="oztCh98i9tekVqnmxVQu-6" style="edgeStyle=orthogonalEdgeStyle;rounded=0;orthogonalLoop=1;jettySize=auto;html=1;exitX=0.5;exitY=1;exitDx=0;exitDy=0;" edge="1" parent="1" source="oztCh98i9tekVqnmxVQu-1" target="oztCh98i9tekVqnmxVQu-2">
          <mxGeometry relative="1" as="geometry" />
        </mxCell>
        <mxCell id="oztCh98i9tekVqnmxVQu-7" style="edgeStyle=orthogonalEdgeStyle;rounded=0;orthogonalLoop=1;jettySize=auto;html=1;exitX=0.5;exitY=1;exitDx=0;exitDy=0;" edge="1" parent="1" source="oztCh98i9tekVqnmxVQu-1" target="oztCh98i9tekVqnmxVQu-4">
          <mxGeometry relative="1" as="geometry" />
        </mxCell>
        <mxCell id="oztCh98i9tekVqnmxVQu-1" value="中国沿海海洋生物在线图鉴系统的设计与实现" style="rounded=1;whiteSpace=wrap;html=1;" vertex="1" parent="1">
          <mxGeometry x="370" y="110" width="260" height="50" as="geometry" />
        </mxCell>
        <mxCell id="oztCh98i9tekVqnmxVQu-31" style="edgeStyle=orthogonalEdgeStyle;rounded=0;orthogonalLoop=1;jettySize=auto;html=1;exitX=0.5;exitY=1;exitDx=0;exitDy=0;" edge="1" parent="1" source="oztCh98i9tekVqnmxVQu-4" target="oztCh98i9tekVqnmxVQu-17">
          <mxGeometry relative="1" as="geometry" />
        </mxCell>
        <mxCell id="oztCh98i9tekVqnmxVQu-32" style="edgeStyle=orthogonalEdgeStyle;rounded=0;orthogonalLoop=1;jettySize=auto;html=1;exitX=0.5;exitY=1;exitDx=0;exitDy=0;" edge="1" parent="1" source="oztCh98i9tekVqnmxVQu-4" target="oztCh98i9tekVqnmxVQu-18">
          <mxGeometry relative="1" as="geometry" />
        </mxCell>
        <mxCell id="oztCh98i9tekVqnmxVQu-33" style="edgeStyle=orthogonalEdgeStyle;rounded=0;orthogonalLoop=1;jettySize=auto;html=1;exitX=0.5;exitY=1;exitDx=0;exitDy=0;" edge="1" parent="1" source="oztCh98i9tekVqnmxVQu-4" target="oztCh98i9tekVqnmxVQu-19">
          <mxGeometry relative="1" as="geometry" />
        </mxCell>
        <mxCell id="oztCh98i9tekVqnmxVQu-34" style="edgeStyle=orthogonalEdgeStyle;rounded=0;orthogonalLoop=1;jettySize=auto;html=1;exitX=0.5;exitY=1;exitDx=0;exitDy=0;" edge="1" parent="1" source="oztCh98i9tekVqnmxVQu-4" target="oztCh98i9tekVqnmxVQu-21">
          <mxGeometry relative="1" as="geometry" />
        </mxCell>
        <mxCell id="oztCh98i9tekVqnmxVQu-35" style="edgeStyle=orthogonalEdgeStyle;rounded=0;orthogonalLoop=1;jettySize=auto;html=1;exitX=0.5;exitY=1;exitDx=0;exitDy=0;" edge="1" parent="1" source="oztCh98i9tekVqnmxVQu-4" target="oztCh98i9tekVqnmxVQu-22">
          <mxGeometry relative="1" as="geometry" />
        </mxCell>
        <mxCell id="oztCh98i9tekVqnmxVQu-63" style="edgeStyle=orthogonalEdgeStyle;rounded=0;orthogonalLoop=1;jettySize=auto;html=1;exitX=0.5;exitY=1;exitDx=0;exitDy=0;" edge="1" parent="1" source="oztCh98i9tekVqnmxVQu-4" target="oztCh98i9tekVqnmxVQu-62">
          <mxGeometry relative="1" as="geometry" />
        </mxCell>
        <mxCell id="oztCh98i9tekVqnmxVQu-4" value="管理端" style="rounded=1;whiteSpace=wrap;html=1;" vertex="1" parent="1">
          <mxGeometry x="1010" y="230" width="80" height="30" as="geometry" />
        </mxCell>
        <mxCell id="oztCh98i9tekVqnmxVQu-74" style="edgeStyle=orthogonalEdgeStyle;rounded=0;orthogonalLoop=1;jettySize=auto;html=1;exitX=1;exitY=0.5;exitDx=0;exitDy=0;" edge="1" parent="1" source="oztCh98i9tekVqnmxVQu-9" target="oztCh98i9tekVqnmxVQu-72">
          <mxGeometry relative="1" as="geometry" />
        </mxCell>
        <mxCell id="oztCh98i9tekVqnmxVQu-75" style="edgeStyle=orthogonalEdgeStyle;rounded=0;orthogonalLoop=1;jettySize=auto;html=1;exitX=1;exitY=0.5;exitDx=0;exitDy=0;" edge="1" parent="1" source="oztCh98i9tekVqnmxVQu-9" target="oztCh98i9tekVqnmxVQu-73">
          <mxGeometry relative="1" as="geometry" />
        </mxCell>
        <mxCell id="oztCh98i9tekVqnmxVQu-9" value="&lt;font style=&quot;font-size: 12px;&quot;&gt;登&lt;br&gt;录&lt;br&gt;注&lt;br&gt;册&lt;br&gt;功&lt;br&gt;能&lt;/font&gt;" style="rounded=0;whiteSpace=wrap;html=1;flipV=1;direction=south;" vertex="1" parent="1">
          <mxGeometry x="-194" y="320" width="40" height="170" as="geometry" />
        </mxCell>
        <mxCell id="oztCh98i9tekVqnmxVQu-77" style="edgeStyle=orthogonalEdgeStyle;rounded=0;orthogonalLoop=1;jettySize=auto;html=1;exitX=1;exitY=0.5;exitDx=0;exitDy=0;" edge="1" parent="1" source="oztCh98i9tekVqnmxVQu-10" target="oztCh98i9tekVqnmxVQu-76">
          <mxGeometry relative="1" as="geometry" />
        </mxCell>
        <mxCell id="oztCh98i9tekVqnmxVQu-10" value="搜&lt;br&gt;索&lt;br&gt;功&lt;br&gt;能" style="rounded=0;whiteSpace=wrap;html=1;flipV=1;direction=south;" vertex="1" parent="1">
          <mxGeometry x="-120" y="320" width="40" height="170" as="geometry" />
        </mxCell>
        <mxCell id="oztCh98i9tekVqnmxVQu-80" style="edgeStyle=orthogonalEdgeStyle;rounded=0;orthogonalLoop=1;jettySize=auto;html=1;exitX=1;exitY=0.5;exitDx=0;exitDy=0;" edge="1" parent="1" source="oztCh98i9tekVqnmxVQu-11" target="oztCh98i9tekVqnmxVQu-78">
          <mxGeometry relative="1" as="geometry" />
        </mxCell>
        <mxCell id="oztCh98i9tekVqnmxVQu-11" value="收&lt;br&gt;藏&lt;br&gt;功&lt;br&gt;能" style="rounded=0;whiteSpace=wrap;html=1;flipV=1;direction=south;" vertex="1" parent="1">
          <mxGeometry x="-70" y="320" width="40" height="170" as="geometry" />
        </mxCell>
        <mxCell id="oztCh98i9tekVqnmxVQu-82" style="edgeStyle=orthogonalEdgeStyle;rounded=0;orthogonalLoop=1;jettySize=auto;html=1;exitX=1;exitY=0.5;exitDx=0;exitDy=0;" edge="1" parent="1" source="oztCh98i9tekVqnmxVQu-12" target="oztCh98i9tekVqnmxVQu-79">
          <mxGeometry relative="1" as="geometry" />
        </mxCell>
        <mxCell id="oztCh98i9tekVqnmxVQu-83" style="edgeStyle=orthogonalEdgeStyle;rounded=0;orthogonalLoop=1;jettySize=auto;html=1;exitX=1;exitY=0.5;exitDx=0;exitDy=0;" edge="1" parent="1" source="oztCh98i9tekVqnmxVQu-12" target="oztCh98i9tekVqnmxVQu-81">
          <mxGeometry relative="1" as="geometry" />
        </mxCell>
        <mxCell id="oztCh98i9tekVqnmxVQu-12" value="个&lt;br&gt;人&lt;br&gt;信&lt;br&gt;息&lt;br&gt;维&lt;br&gt;护&lt;br&gt;功&lt;br&gt;能" style="rounded=0;whiteSpace=wrap;html=1;flipV=1;direction=south;" vertex="1" parent="1">
          <mxGeometry x="7" y="320" width="40" height="170" as="geometry" />
        </mxCell>
        <mxCell id="oztCh98i9tekVqnmxVQu-87" style="edgeStyle=orthogonalEdgeStyle;rounded=0;orthogonalLoop=1;jettySize=auto;html=1;exitX=1;exitY=0.5;exitDx=0;exitDy=0;" edge="1" parent="1" source="oztCh98i9tekVqnmxVQu-13" target="oztCh98i9tekVqnmxVQu-84">
          <mxGeometry relative="1" as="geometry" />
        </mxCell>
        <mxCell id="oztCh98i9tekVqnmxVQu-88" style="edgeStyle=orthogonalEdgeStyle;rounded=0;orthogonalLoop=1;jettySize=auto;html=1;exitX=1;exitY=0.5;exitDx=0;exitDy=0;" edge="1" parent="1" source="oztCh98i9tekVqnmxVQu-13" target="oztCh98i9tekVqnmxVQu-85">
          <mxGeometry relative="1" as="geometry" />
        </mxCell>
        <mxCell id="oztCh98i9tekVqnmxVQu-90" style="edgeStyle=orthogonalEdgeStyle;rounded=0;orthogonalLoop=1;jettySize=auto;html=1;exitX=1;exitY=0.5;exitDx=0;exitDy=0;" edge="1" parent="1" source="oztCh98i9tekVqnmxVQu-13" target="oztCh98i9tekVqnmxVQu-86">
          <mxGeometry relative="1" as="geometry" />
        </mxCell>
        <mxCell id="oztCh98i9tekVqnmxVQu-13" value="订&lt;br&gt;阅&lt;br&gt;更&lt;br&gt;新&lt;br&gt;功&lt;br&gt;能" style="rounded=0;whiteSpace=wrap;html=1;flipV=1;direction=south;" vertex="1" parent="1">
          <mxGeometry x="130" y="320" width="40" height="170" as="geometry" />
        </mxCell>
        <mxCell id="oztCh98i9tekVqnmxVQu-92" style="edgeStyle=orthogonalEdgeStyle;rounded=0;orthogonalLoop=1;jettySize=auto;html=1;exitX=1;exitY=0.5;exitDx=0;exitDy=0;" edge="1" parent="1" source="oztCh98i9tekVqnmxVQu-14" target="oztCh98i9tekVqnmxVQu-91">
          <mxGeometry relative="1" as="geometry" />
        </mxCell>
        <mxCell id="oztCh98i9tekVqnmxVQu-14" value="地&lt;br&gt;图&lt;br&gt;查&lt;br&gt;验&lt;br&gt;功&lt;br&gt;能" style="rounded=0;whiteSpace=wrap;html=1;flipV=1;direction=south;" vertex="1" parent="1">
          <mxGeometry x="230" y="320" width="40" height="170" as="geometry" />
        </mxCell>
        <mxCell id="oztCh98i9tekVqnmxVQu-96" style="edgeStyle=orthogonalEdgeStyle;rounded=0;orthogonalLoop=1;jettySize=auto;html=1;exitX=1;exitY=0.5;exitDx=0;exitDy=0;" edge="1" parent="1" source="oztCh98i9tekVqnmxVQu-15" target="oztCh98i9tekVqnmxVQu-93">
          <mxGeometry relative="1" as="geometry" />
        </mxCell>
        <mxCell id="oztCh98i9tekVqnmxVQu-98" style="edgeStyle=orthogonalEdgeStyle;rounded=0;orthogonalLoop=1;jettySize=auto;html=1;exitX=1;exitY=0.5;exitDx=0;exitDy=0;" edge="1" parent="1" source="oztCh98i9tekVqnmxVQu-15" target="oztCh98i9tekVqnmxVQu-94">
          <mxGeometry relative="1" as="geometry" />
        </mxCell>
        <mxCell id="oztCh98i9tekVqnmxVQu-99" style="edgeStyle=orthogonalEdgeStyle;rounded=0;orthogonalLoop=1;jettySize=auto;html=1;exitX=1;exitY=0.5;exitDx=0;exitDy=0;" edge="1" parent="1" source="oztCh98i9tekVqnmxVQu-15" target="oztCh98i9tekVqnmxVQu-95">
          <mxGeometry relative="1" as="geometry" />
        </mxCell>
        <mxCell id="oztCh98i9tekVqnmxVQu-15" value="反&lt;br&gt;馈&lt;br&gt;功&lt;br&gt;能" style="rounded=0;whiteSpace=wrap;html=1;flipV=1;direction=south;" vertex="1" parent="1">
          <mxGeometry x="330" y="320" width="40" height="170" as="geometry" />
        </mxCell>
        <mxCell id="oztCh98i9tekVqnmxVQu-102" style="edgeStyle=orthogonalEdgeStyle;rounded=0;orthogonalLoop=1;jettySize=auto;html=1;exitX=1;exitY=0.5;exitDx=0;exitDy=0;" edge="1" parent="1" source="oztCh98i9tekVqnmxVQu-16" target="oztCh98i9tekVqnmxVQu-101">
          <mxGeometry relative="1" as="geometry" />
        </mxCell>
        <mxCell id="oztCh98i9tekVqnmxVQu-103" style="edgeStyle=orthogonalEdgeStyle;rounded=0;orthogonalLoop=1;jettySize=auto;html=1;exitX=1;exitY=0.5;exitDx=0;exitDy=0;" edge="1" parent="1" source="oztCh98i9tekVqnmxVQu-16" target="oztCh98i9tekVqnmxVQu-100">
          <mxGeometry relative="1" as="geometry" />
        </mxCell>
        <mxCell id="oztCh98i9tekVqnmxVQu-16" value="支&lt;br&gt;付&lt;br&gt;购&lt;br&gt;买&lt;br&gt;功&lt;br&gt;能" style="rounded=0;whiteSpace=wrap;html=1;flipV=1;direction=south;" vertex="1" parent="1">
          <mxGeometry x="456" y="320" width="40" height="170" as="geometry" />
        </mxCell>
        <mxCell id="oztCh98i9tekVqnmxVQu-41" style="edgeStyle=orthogonalEdgeStyle;rounded=0;orthogonalLoop=1;jettySize=auto;html=1;exitX=1;exitY=0.5;exitDx=0;exitDy=0;" edge="1" parent="1" source="oztCh98i9tekVqnmxVQu-17" target="oztCh98i9tekVqnmxVQu-36">
          <mxGeometry relative="1" as="geometry" />
        </mxCell>
        <mxCell id="oztCh98i9tekVqnmxVQu-44" style="edgeStyle=orthogonalEdgeStyle;rounded=0;orthogonalLoop=1;jettySize=auto;html=1;exitX=1;exitY=0.5;exitDx=0;exitDy=0;" edge="1" parent="1" source="oztCh98i9tekVqnmxVQu-17" target="oztCh98i9tekVqnmxVQu-37">
          <mxGeometry relative="1" as="geometry" />
        </mxCell>
        <mxCell id="oztCh98i9tekVqnmxVQu-45" style="edgeStyle=orthogonalEdgeStyle;rounded=0;orthogonalLoop=1;jettySize=auto;html=1;exitX=1;exitY=0.5;exitDx=0;exitDy=0;" edge="1" parent="1" source="oztCh98i9tekVqnmxVQu-17" target="oztCh98i9tekVqnmxVQu-38">
          <mxGeometry relative="1" as="geometry" />
        </mxCell>
        <mxCell id="oztCh98i9tekVqnmxVQu-17" value="用&lt;br&gt;户&lt;br&gt;管&lt;br&gt;理" style="rounded=0;whiteSpace=wrap;html=1;flipV=1;direction=south;" vertex="1" parent="1">
          <mxGeometry x="680" y="320" width="40" height="170" as="geometry" />
        </mxCell>
        <mxCell id="oztCh98i9tekVqnmxVQu-46" style="edgeStyle=orthogonalEdgeStyle;rounded=0;orthogonalLoop=1;jettySize=auto;html=1;exitX=1;exitY=0.5;exitDx=0;exitDy=0;" edge="1" parent="1" source="oztCh98i9tekVqnmxVQu-18" target="oztCh98i9tekVqnmxVQu-39">
          <mxGeometry relative="1" as="geometry" />
        </mxCell>
        <mxCell id="oztCh98i9tekVqnmxVQu-47" style="edgeStyle=orthogonalEdgeStyle;rounded=0;orthogonalLoop=1;jettySize=auto;html=1;exitX=1;exitY=0.5;exitDx=0;exitDy=0;" edge="1" parent="1" source="oztCh98i9tekVqnmxVQu-18" target="oztCh98i9tekVqnmxVQu-40">
          <mxGeometry relative="1" as="geometry" />
        </mxCell>
        <mxCell id="oztCh98i9tekVqnmxVQu-18" value="内&lt;br&gt;容&lt;br&gt;详&lt;br&gt;细&lt;br&gt;管&lt;br&gt;理" style="rounded=0;whiteSpace=wrap;html=1;flipV=1;direction=south;" vertex="1" parent="1">
          <mxGeometry x="810" y="320" width="40" height="170" as="geometry" />
        </mxCell>
        <mxCell id="oztCh98i9tekVqnmxVQu-51" style="edgeStyle=orthogonalEdgeStyle;rounded=0;orthogonalLoop=1;jettySize=auto;html=1;exitX=1;exitY=0.5;exitDx=0;exitDy=0;" edge="1" parent="1" source="oztCh98i9tekVqnmxVQu-19" target="oztCh98i9tekVqnmxVQu-48">
          <mxGeometry relative="1" as="geometry" />
        </mxCell>
        <mxCell id="oztCh98i9tekVqnmxVQu-52" style="edgeStyle=orthogonalEdgeStyle;rounded=0;orthogonalLoop=1;jettySize=auto;html=1;exitX=1;exitY=0.5;exitDx=0;exitDy=0;" edge="1" parent="1" source="oztCh98i9tekVqnmxVQu-19" target="oztCh98i9tekVqnmxVQu-49">
          <mxGeometry relative="1" as="geometry" />
        </mxCell>
        <mxCell id="oztCh98i9tekVqnmxVQu-53" style="edgeStyle=orthogonalEdgeStyle;rounded=0;orthogonalLoop=1;jettySize=auto;html=1;exitX=1;exitY=0.5;exitDx=0;exitDy=0;" edge="1" parent="1" source="oztCh98i9tekVqnmxVQu-19" target="oztCh98i9tekVqnmxVQu-50">
          <mxGeometry relative="1" as="geometry" />
        </mxCell>
        <mxCell id="oztCh98i9tekVqnmxVQu-19" value="订&lt;br&gt;单&lt;br&gt;管&lt;br&gt;理" style="rounded=0;whiteSpace=wrap;html=1;flipV=1;direction=south;" vertex="1" parent="1">
          <mxGeometry x="930" y="320" width="40" height="170" as="geometry" />
        </mxCell>
        <mxCell id="oztCh98i9tekVqnmxVQu-58" style="edgeStyle=orthogonalEdgeStyle;rounded=0;orthogonalLoop=1;jettySize=auto;html=1;exitX=1;exitY=0.5;exitDx=0;exitDy=0;" edge="1" parent="1" source="oztCh98i9tekVqnmxVQu-21" target="oztCh98i9tekVqnmxVQu-54">
          <mxGeometry relative="1" as="geometry" />
        </mxCell>
        <mxCell id="oztCh98i9tekVqnmxVQu-59" style="edgeStyle=orthogonalEdgeStyle;rounded=0;orthogonalLoop=1;jettySize=auto;html=1;exitX=1;exitY=0.5;exitDx=0;exitDy=0;" edge="1" parent="1" source="oztCh98i9tekVqnmxVQu-21" target="oztCh98i9tekVqnmxVQu-55">
          <mxGeometry relative="1" as="geometry" />
        </mxCell>
        <mxCell id="oztCh98i9tekVqnmxVQu-60" style="edgeStyle=orthogonalEdgeStyle;rounded=0;orthogonalLoop=1;jettySize=auto;html=1;exitX=1;exitY=0.5;exitDx=0;exitDy=0;" edge="1" parent="1" source="oztCh98i9tekVqnmxVQu-21" target="oztCh98i9tekVqnmxVQu-56">
          <mxGeometry relative="1" as="geometry" />
        </mxCell>
        <mxCell id="oztCh98i9tekVqnmxVQu-61" style="edgeStyle=orthogonalEdgeStyle;rounded=0;orthogonalLoop=1;jettySize=auto;html=1;exitX=1;exitY=0.5;exitDx=0;exitDy=0;" edge="1" parent="1" source="oztCh98i9tekVqnmxVQu-21" target="oztCh98i9tekVqnmxVQu-57">
          <mxGeometry relative="1" as="geometry" />
        </mxCell>
        <mxCell id="oztCh98i9tekVqnmxVQu-21" value="商&lt;br&gt;品&lt;br&gt;管&lt;br&gt;理" style="rounded=0;whiteSpace=wrap;html=1;flipV=1;direction=south;" vertex="1" parent="1">
          <mxGeometry x="1110" y="320" width="40" height="170" as="geometry" />
        </mxCell>
        <mxCell id="oztCh98i9tekVqnmxVQu-67" style="edgeStyle=orthogonalEdgeStyle;rounded=0;orthogonalLoop=1;jettySize=auto;html=1;exitX=1;exitY=0.5;exitDx=0;exitDy=0;" edge="1" parent="1" source="oztCh98i9tekVqnmxVQu-22" target="oztCh98i9tekVqnmxVQu-64">
          <mxGeometry relative="1" as="geometry" />
        </mxCell>
        <mxCell id="oztCh98i9tekVqnmxVQu-68" style="edgeStyle=orthogonalEdgeStyle;rounded=0;orthogonalLoop=1;jettySize=auto;html=1;exitX=1;exitY=0.5;exitDx=0;exitDy=0;" edge="1" parent="1" source="oztCh98i9tekVqnmxVQu-22" target="oztCh98i9tekVqnmxVQu-65">
          <mxGeometry relative="1" as="geometry" />
        </mxCell>
        <mxCell id="oztCh98i9tekVqnmxVQu-22" value="用&lt;br&gt;户&lt;br&gt;反&lt;br&gt;馈&lt;br&gt;管&lt;br&gt;理" style="rounded=0;whiteSpace=wrap;html=1;flipV=1;direction=south;" vertex="1" parent="1">
          <mxGeometry x="1256" y="320" width="40" height="170" as="geometry" />
        </mxCell>
        <mxCell id="oztCh98i9tekVqnmxVQu-36" value="查&lt;br&gt;询&lt;br&gt;用&lt;br&gt;户&lt;br&gt;列&lt;br&gt;表" style="rounded=0;whiteSpace=wrap;html=1;flipV=1;direction=south;" vertex="1" parent="1">
          <mxGeometry x="630" y="530" width="40" height="140" as="geometry" />
        </mxCell>
        <mxCell id="oztCh98i9tekVqnmxVQu-37" value="注&lt;br&gt;销&lt;br&gt;用&lt;br&gt;户&lt;br&gt;账&lt;br&gt;户" style="rounded=0;whiteSpace=wrap;html=1;flipV=1;direction=south;" vertex="1" parent="1">
          <mxGeometry x="680" y="530" width="40" height="140" as="geometry" />
        </mxCell>
        <mxCell id="oztCh98i9tekVqnmxVQu-38" value="精&lt;br&gt;确&lt;br&gt;搜&lt;br&gt;索&lt;br&gt;单&lt;br&gt;个&lt;br&gt;用&lt;br&gt;户" style="rounded=0;whiteSpace=wrap;html=1;flipV=1;direction=south;" vertex="1" parent="1">
          <mxGeometry x="730" y="530" width="40" height="140" as="geometry" />
        </mxCell>
        <mxCell id="oztCh98i9tekVqnmxVQu-39" value="修&lt;br&gt;正&lt;br&gt;生&lt;br&gt;物&lt;br&gt;信&lt;br&gt;息" style="rounded=0;whiteSpace=wrap;html=1;flipV=1;direction=south;" vertex="1" parent="1">
          <mxGeometry x="780" y="530" width="40" height="140" as="geometry" />
        </mxCell>
        <mxCell id="oztCh98i9tekVqnmxVQu-40" value="添&lt;br&gt;加&lt;br&gt;生&lt;br&gt;物&lt;br&gt;图&lt;br&gt;片" style="rounded=0;whiteSpace=wrap;html=1;flipV=1;direction=south;" vertex="1" parent="1">
          <mxGeometry x="830" y="530" width="40" height="140" as="geometry" />
        </mxCell>
        <mxCell id="oztCh98i9tekVqnmxVQu-48" value="查&lt;br&gt;询&lt;br&gt;订&lt;br&gt;单&lt;br&gt;列&lt;br&gt;表" style="rounded=0;whiteSpace=wrap;html=1;flipV=1;direction=south;" vertex="1" parent="1">
          <mxGeometry x="880" y="530" width="40" height="140" as="geometry" />
        </mxCell>
        <mxCell id="oztCh98i9tekVqnmxVQu-49" value="查&lt;br&gt;看&lt;br&gt;订&lt;br&gt;单&lt;br&gt;状&lt;br&gt;态" style="rounded=0;whiteSpace=wrap;html=1;flipV=1;direction=south;" vertex="1" parent="1">
          <mxGeometry x="930" y="530" width="40" height="140" as="geometry" />
        </mxCell>
        <mxCell id="oztCh98i9tekVqnmxVQu-50" value="精&lt;br&gt;确&lt;br&gt;搜&lt;br&gt;索&lt;br&gt;订&lt;br&gt;单" style="rounded=0;whiteSpace=wrap;html=1;flipV=1;direction=south;" vertex="1" parent="1">
          <mxGeometry x="980" y="530" width="40" height="140" as="geometry" />
        </mxCell>
        <mxCell id="oztCh98i9tekVqnmxVQu-54" value="查&lt;br&gt;看&lt;br&gt;商&lt;br&gt;品&lt;br&gt;信&lt;br&gt;息" style="rounded=0;whiteSpace=wrap;html=1;flipV=1;direction=south;" vertex="1" parent="1">
          <mxGeometry x="1030" y="530" width="40" height="140" as="geometry" />
        </mxCell>
        <mxCell id="oztCh98i9tekVqnmxVQu-55" value="添&lt;br&gt;加&lt;br&gt;新&lt;br&gt;商&lt;br&gt;品" style="rounded=0;whiteSpace=wrap;html=1;flipV=1;direction=south;" vertex="1" parent="1">
          <mxGeometry x="1080" y="530" width="40" height="140" as="geometry" />
        </mxCell>
        <mxCell id="oztCh98i9tekVqnmxVQu-56" value="修&lt;br&gt;改&lt;br&gt;商&lt;br&gt;品&lt;br&gt;信&lt;br&gt;息" style="rounded=0;whiteSpace=wrap;html=1;flipV=1;direction=south;" vertex="1" parent="1">
          <mxGeometry x="1130" y="530" width="40" height="140" as="geometry" />
        </mxCell>
        <mxCell id="oztCh98i9tekVqnmxVQu-57" value="设&lt;br&gt;置&lt;br&gt;商&lt;br&gt;品&lt;br&gt;状&lt;br&gt;态" style="rounded=0;whiteSpace=wrap;html=1;flipV=1;direction=south;" vertex="1" parent="1">
          <mxGeometry x="1180" y="530" width="40" height="140" as="geometry" />
        </mxCell>
        <mxCell id="oztCh98i9tekVqnmxVQu-70" style="edgeStyle=orthogonalEdgeStyle;rounded=0;orthogonalLoop=1;jettySize=auto;html=1;exitX=1;exitY=0.5;exitDx=0;exitDy=0;" edge="1" parent="1" source="oztCh98i9tekVqnmxVQu-62" target="oztCh98i9tekVqnmxVQu-66">
          <mxGeometry relative="1" as="geometry" />
        </mxCell>
        <mxCell id="oztCh98i9tekVqnmxVQu-71" style="edgeStyle=orthogonalEdgeStyle;rounded=0;orthogonalLoop=1;jettySize=auto;html=1;exitX=1;exitY=0.5;exitDx=0;exitDy=0;" edge="1" parent="1" source="oztCh98i9tekVqnmxVQu-62" target="oztCh98i9tekVqnmxVQu-69">
          <mxGeometry relative="1" as="geometry" />
        </mxCell>
        <mxCell id="oztCh98i9tekVqnmxVQu-62" value="活&lt;br&gt;动&lt;br&gt;管&lt;br&gt;理" style="rounded=0;whiteSpace=wrap;html=1;flipV=1;direction=south;" vertex="1" parent="1">
          <mxGeometry x="1357" y="320" width="40" height="170" as="geometry" />
        </mxCell>
        <mxCell id="oztCh98i9tekVqnmxVQu-64" value="查&lt;br&gt;看&lt;br&gt;反&lt;br&gt;馈&lt;br&gt;详&lt;br&gt;情" style="rounded=0;whiteSpace=wrap;html=1;flipV=1;direction=south;" vertex="1" parent="1">
          <mxGeometry x="1230" y="530" width="40" height="140" as="geometry" />
        </mxCell>
        <mxCell id="oztCh98i9tekVqnmxVQu-65" value="回&lt;br&gt;复&lt;br&gt;反&lt;br&gt;馈" style="rounded=0;whiteSpace=wrap;html=1;flipV=1;direction=south;" vertex="1" parent="1">
          <mxGeometry x="1280" y="530" width="40" height="140" as="geometry" />
        </mxCell>
        <mxCell id="oztCh98i9tekVqnmxVQu-66" value="发&lt;br&gt;布&lt;br&gt;活&lt;br&gt;动" style="rounded=0;whiteSpace=wrap;html=1;flipV=1;direction=south;" vertex="1" parent="1">
          <mxGeometry x="1330" y="530" width="40" height="140" as="geometry" />
        </mxCell>
        <mxCell id="oztCh98i9tekVqnmxVQu-69" value="统&lt;br&gt;计&lt;br&gt;活&lt;br&gt;动&lt;br&gt;数&lt;br&gt;据" style="rounded=0;whiteSpace=wrap;html=1;flipV=1;direction=south;" vertex="1" parent="1">
          <mxGeometry x="1380" y="530" width="40" height="140" as="geometry" />
        </mxCell>
        <mxCell id="oztCh98i9tekVqnmxVQu-72" value="依&lt;br&gt;据&lt;br&gt;手&lt;br&gt;机&lt;br&gt;号&lt;br&gt;注&lt;br&gt;册" style="rounded=0;whiteSpace=wrap;html=1;flipV=1;direction=south;" vertex="1" parent="1">
          <mxGeometry x="-220" y="530" width="40" height="140" as="geometry" />
        </mxCell>
        <mxCell id="oztCh98i9tekVqnmxVQu-73" value="依&lt;br&gt;据&lt;br&gt;手&lt;br&gt;机&lt;br&gt;号&lt;br&gt;登&lt;br&gt;录" style="rounded=0;whiteSpace=wrap;html=1;flipV=1;direction=south;" vertex="1" parent="1">
          <mxGeometry x="-170" y="530" width="40" height="140" as="geometry" />
        </mxCell>
        <mxCell id="oztCh98i9tekVqnmxVQu-76" value="根&lt;br&gt;据&lt;br&gt;关&lt;br&gt;键&lt;br&gt;词&lt;br&gt;模&lt;br&gt;糊&lt;br&gt;搜&lt;br&gt;索" style="rounded=0;whiteSpace=wrap;html=1;flipV=1;direction=south;" vertex="1" parent="1">
          <mxGeometry x="-120" y="530" width="40" height="140" as="geometry" />
        </mxCell>
        <mxCell id="oztCh98i9tekVqnmxVQu-78" value="添&lt;br&gt;加&lt;br&gt;生&lt;br&gt;物&lt;br&gt;到&lt;br&gt;收&lt;br&gt;藏&lt;br&gt;夹" style="rounded=0;whiteSpace=wrap;html=1;flipV=1;direction=south;" vertex="1" parent="1">
          <mxGeometry x="-70" y="530" width="40" height="140" as="geometry" />
        </mxCell>
        <mxCell id="oztCh98i9tekVqnmxVQu-79" value="编&lt;br&gt;辑&lt;br&gt;个&lt;br&gt;人&lt;br&gt;信&lt;br&gt;息" style="rounded=0;whiteSpace=wrap;html=1;flipV=1;direction=south;" vertex="1" parent="1">
          <mxGeometry x="-20" y="530" width="40" height="140" as="geometry" />
        </mxCell>
        <mxCell id="oztCh98i9tekVqnmxVQu-81" value="修&lt;br&gt;改&lt;br&gt;个&lt;br&gt;人&lt;br&gt;信&lt;br&gt;息" style="rounded=0;whiteSpace=wrap;html=1;flipV=1;direction=south;" vertex="1" parent="1">
          <mxGeometry x="30" y="530" width="40" height="140" as="geometry" />
        </mxCell>
        <mxCell id="oztCh98i9tekVqnmxVQu-84" value="订&lt;br&gt;阅&lt;br&gt;海&lt;br&gt;域&lt;br&gt;信&lt;br&gt;息" style="rounded=0;whiteSpace=wrap;html=1;flipV=1;direction=south;" vertex="1" parent="1">
          <mxGeometry x="80" y="530" width="40" height="140" as="geometry" />
        </mxCell>
        <mxCell id="oztCh98i9tekVqnmxVQu-85" value="订&lt;br&gt;阅&lt;br&gt;生&lt;br&gt;物&lt;br&gt;信&lt;br&gt;息" style="rounded=0;whiteSpace=wrap;html=1;flipV=1;direction=south;" vertex="1" parent="1">
          <mxGeometry x="130" y="530" width="40" height="140" as="geometry" />
        </mxCell>
        <mxCell id="oztCh98i9tekVqnmxVQu-86" value="订&lt;br&gt;阅&lt;br&gt;活&lt;br&gt;动&lt;br&gt;信&lt;br&gt;息" style="rounded=0;whiteSpace=wrap;html=1;flipV=1;direction=south;" vertex="1" parent="1">
          <mxGeometry x="180" y="530" width="40" height="140" as="geometry" />
        </mxCell>
        <mxCell id="oztCh98i9tekVqnmxVQu-91" value="通&lt;br&gt;过&lt;br&gt;地&lt;br&gt;图&lt;br&gt;查&lt;br&gt;看&lt;br&gt;海&lt;br&gt;域" style="rounded=0;whiteSpace=wrap;html=1;flipV=1;direction=south;" vertex="1" parent="1">
          <mxGeometry x="230" y="530" width="40" height="140" as="geometry" />
        </mxCell>
        <mxCell id="oztCh98i9tekVqnmxVQu-93" value="网&lt;br&gt;站&lt;br&gt;功&lt;br&gt;能&lt;br&gt;反&lt;br&gt;馈" style="rounded=0;whiteSpace=wrap;html=1;flipV=1;direction=south;" vertex="1" parent="1">
          <mxGeometry x="280" y="530" width="40" height="140" as="geometry" />
        </mxCell>
        <mxCell id="oztCh98i9tekVqnmxVQu-94" value="活&lt;br&gt;动&lt;br&gt;反&lt;br&gt;馈" style="rounded=0;whiteSpace=wrap;html=1;flipV=1;direction=south;" vertex="1" parent="1">
          <mxGeometry x="330" y="530" width="40" height="140" as="geometry" />
        </mxCell>
        <mxCell id="oztCh98i9tekVqnmxVQu-95" value="生&lt;br&gt;物&lt;br&gt;信&lt;br&gt;息&lt;br&gt;反&lt;br&gt;馈" style="rounded=0;whiteSpace=wrap;html=1;flipV=1;direction=south;" vertex="1" parent="1">
          <mxGeometry x="380" y="530" width="40" height="140" as="geometry" />
        </mxCell>
        <mxCell id="oztCh98i9tekVqnmxVQu-100" value="支&lt;br&gt;付&lt;br&gt;订&lt;br&gt;单" style="rounded=0;whiteSpace=wrap;html=1;flipV=1;direction=south;" vertex="1" parent="1">
          <mxGeometry x="480" y="530" width="40" height="140" as="geometry" />
        </mxCell>
        <mxCell id="oztCh98i9tekVqnmxVQu-101" value="购&lt;br&gt;买&lt;br&gt;物&lt;br&gt;品" style="rounded=0;whiteSpace=wrap;html=1;flipV=1;direction=south;" vertex="1" parent="1">
          <mxGeometry x="430" y="530" width="40" height="140" as="geometry" />
        </mxCell>
        <mxCell id="oztCh98i9tekVqnmxVQu-108" style="edgeStyle=orthogonalEdgeStyle;rounded=0;orthogonalLoop=1;jettySize=auto;html=1;exitX=1;exitY=0.5;exitDx=0;exitDy=0;" edge="1" parent="1" source="oztCh98i9tekVqnmxVQu-104" target="oztCh98i9tekVqnmxVQu-106">
          <mxGeometry relative="1" as="geometry" />
        </mxCell>
        <mxCell id="oztCh98i9tekVqnmxVQu-109" style="edgeStyle=orthogonalEdgeStyle;rounded=0;orthogonalLoop=1;jettySize=auto;html=1;exitX=1;exitY=0.5;exitDx=0;exitDy=0;" edge="1" parent="1" source="oztCh98i9tekVqnmxVQu-104" target="oztCh98i9tekVqnmxVQu-107">
          <mxGeometry relative="1" as="geometry" />
        </mxCell>
        <mxCell id="oztCh98i9tekVqnmxVQu-104" value="活&lt;br&gt;动&lt;br&gt;功&lt;br&gt;能" style="rounded=0;whiteSpace=wrap;html=1;flipV=1;direction=south;" vertex="1" parent="1">
          <mxGeometry x="555" y="320" width="40" height="170" as="geometry" />
        </mxCell>
        <mxCell id="oztCh98i9tekVqnmxVQu-106" value="查&lt;br&gt;看&lt;br&gt;活&lt;br&gt;动&lt;br&gt;详&lt;br&gt;情" style="rounded=0;whiteSpace=wrap;html=1;flipV=1;direction=south;" vertex="1" parent="1">
          <mxGeometry x="530" y="530" width="40" height="140" as="geometry" />
        </mxCell>
        <mxCell id="oztCh98i9tekVqnmxVQu-107" value="参&lt;br&gt;与&lt;br&gt;活&lt;br&gt;动" style="rounded=0;whiteSpace=wrap;html=1;flipV=1;direction=south;" vertex="1" parent="1">
          <mxGeometry x="580" y="530" width="40" height="140" as="geometry" />
        </mxCell>
        <mxCell id="oztCh98i9tekVqnmxVQu-113" style="edgeStyle=orthogonalEdgeStyle;rounded=0;orthogonalLoop=1;jettySize=auto;html=1;exitX=0.5;exitY=1;exitDx=0;exitDy=0;" edge="1" parent="1" source="oztCh98i9tekVqnmxVQu-2" target="oztCh98i9tekVqnmxVQu-9">
          <mxGeometry relative="1" as="geometry" />
        </mxCell>
        <mxCell id="oztCh98i9tekVqnmxVQu-114" style="edgeStyle=orthogonalEdgeStyle;rounded=0;orthogonalLoop=1;jettySize=auto;html=1;exitX=0.5;exitY=1;exitDx=0;exitDy=0;" edge="1" parent="1" source="oztCh98i9tekVqnmxVQu-2" target="oztCh98i9tekVqnmxVQu-10">
          <mxGeometry relative="1" as="geometry" />
        </mxCell>
        <mxCell id="oztCh98i9tekVqnmxVQu-115" style="edgeStyle=orthogonalEdgeStyle;rounded=0;orthogonalLoop=1;jettySize=auto;html=1;exitX=0.5;exitY=1;exitDx=0;exitDy=0;" edge="1" parent="1" source="oztCh98i9tekVqnmxVQu-2" target="oztCh98i9tekVqnmxVQu-11">
          <mxGeometry relative="1" as="geometry" />
        </mxCell>
        <mxCell id="oztCh98i9tekVqnmxVQu-117" style="edgeStyle=orthogonalEdgeStyle;rounded=0;orthogonalLoop=1;jettySize=auto;html=1;exitX=0.5;exitY=1;exitDx=0;exitDy=0;" edge="1" parent="1" source="oztCh98i9tekVqnmxVQu-2" target="oztCh98i9tekVqnmxVQu-12">
          <mxGeometry relative="1" as="geometry" />
        </mxCell>
        <mxCell id="oztCh98i9tekVqnmxVQu-118" style="edgeStyle=orthogonalEdgeStyle;rounded=0;orthogonalLoop=1;jettySize=auto;html=1;exitX=0.5;exitY=1;exitDx=0;exitDy=0;" edge="1" parent="1" source="oztCh98i9tekVqnmxVQu-2" target="oztCh98i9tekVqnmxVQu-13">
          <mxGeometry relative="1" as="geometry" />
        </mxCell>
        <mxCell id="oztCh98i9tekVqnmxVQu-119" style="edgeStyle=orthogonalEdgeStyle;rounded=0;orthogonalLoop=1;jettySize=auto;html=1;exitX=0.5;exitY=1;exitDx=0;exitDy=0;" edge="1" parent="1" source="oztCh98i9tekVqnmxVQu-2" target="oztCh98i9tekVqnmxVQu-14">
          <mxGeometry relative="1" as="geometry" />
        </mxCell>
        <mxCell id="oztCh98i9tekVqnmxVQu-120" style="edgeStyle=orthogonalEdgeStyle;rounded=0;orthogonalLoop=1;jettySize=auto;html=1;exitX=0.5;exitY=1;exitDx=0;exitDy=0;" edge="1" parent="1" source="oztCh98i9tekVqnmxVQu-2" target="oztCh98i9tekVqnmxVQu-15">
          <mxGeometry relative="1" as="geometry" />
        </mxCell>
        <mxCell id="oztCh98i9tekVqnmxVQu-121" style="edgeStyle=orthogonalEdgeStyle;rounded=0;orthogonalLoop=1;jettySize=auto;html=1;exitX=0.5;exitY=1;exitDx=0;exitDy=0;" edge="1" parent="1" source="oztCh98i9tekVqnmxVQu-2" target="oztCh98i9tekVqnmxVQu-16">
          <mxGeometry relative="1" as="geometry" />
        </mxCell>
        <mxCell id="oztCh98i9tekVqnmxVQu-122" style="edgeStyle=orthogonalEdgeStyle;rounded=0;orthogonalLoop=1;jettySize=auto;html=1;exitX=0.5;exitY=1;exitDx=0;exitDy=0;" edge="1" parent="1" source="oztCh98i9tekVqnmxVQu-2" target="oztCh98i9tekVqnmxVQu-104">
          <mxGeometry relative="1" as="geometry" />
        </mxCell>
        <mxCell id="oztCh98i9tekVqnmxVQu-2" value="用户端" style="rounded=1;whiteSpace=wrap;html=1;" vertex="1" parent="1">
          <mxGeometry x="140" y="230" width="80" height="30" as="geometry" />
        </mxCell>
      </root>
    </mxGraphModel>
  </diagram>
</mxfile>
